<?xml version="1.0" encoding="UTF-8"?>
<!DOCTYPE svg PUBLIC "-//W3C//DTD SVG 1.1//EN" "http://www.w3.org/Graphics/SVG/1.1/DTD/svg11.dtd">
<!-- Creator: CorelDRAW 2021 (64-Bit) -->
<svg xmlns="http://www.w3.org/2000/svg" xml:space="preserve" width="16.9333mm" height="16.9333mm" version="1.1" style="shape-rendering:geometricPrecision; text-rendering:geometricPrecision; image-rendering:optimizeQuality; fill-rule:evenodd; clip-rule:evenodd"
viewBox="0 0 115.43 115.43"
 xmlns:xlink="http://www.w3.org/1999/xlink"
 xmlns:xodm="http://www.corel.com/coreldraw/odm/2003">
 <defs>
  <style type="text/css">
   <![CDATA[
    .fil1 {fill:black}
    .fil0 {fill:white}
   ]]>
  </style>
 </defs>
 <g id="Layer_x0020_1">
  <metadata id="CorelCorpID_0Corel-Layer"/>
  <g id="_1789357905728">
   <rect class="fil0" x="-0" y="0" width="115.43" height="115.43"/>
   <path class="fil1" d="M26.8 24.45l61.82 0c1.3,0 2.35,1.05 2.35,2.35l0 11.61 0 50.21c0,1.3 -1.05,2.35 -2.35,2.35l-61.82 0c-1.3,0 -2.35,-1.05 -2.35,-2.35l0 -50.21 0 -11.61c0,-1.3 1.05,-2.35 2.35,-2.35zm-20.12 -20.12l102.07 0c1.3,0 2.35,1.05 2.35,2.35l0 102.07c0,1.3 -1.05,2.35 -2.35,2.35l-102.07 0c-1.3,0 -2.35,-1.05 -2.35,-2.35l0 -102.07c0,-1.3 1.05,-2.35 2.35,-2.35zm99.72 4.71l-97.36 0 0 97.36 97.36 0 0 -97.36zm-20.12 31.74l-57.11 0 0 45.5 57.11 0 0 -45.5z"/>
  </g>
 </g>
</svg>
