<?xml version="1.0" encoding="UTF-8"?>
<!DOCTYPE svg PUBLIC "-//W3C//DTD SVG 1.1//EN" "http://www.w3.org/Graphics/SVG/1.1/DTD/svg11.dtd">
<!-- Creator: CorelDRAW 2021 (64-Bit) -->
<svg xmlns="http://www.w3.org/2000/svg" xml:space="preserve" width="16.9333mm" height="16.9333mm" version="1.1" style="shape-rendering:geometricPrecision; text-rendering:geometricPrecision; image-rendering:optimizeQuality; fill-rule:evenodd; clip-rule:evenodd"
viewBox="0 0 99.06 99.06"
 xmlns:xlink="http://www.w3.org/1999/xlink"
 xmlns:xodm="http://www.corel.com/coreldraw/odm/2003">
 <defs>
  <style type="text/css">
   <![CDATA[
    .fil0 {fill:white}
    .fil1 {fill:black;fill-rule:nonzero}
   ]]>
  </style>
 </defs>
 <g id="Layer_x0020_1">
  <metadata id="CorelCorpID_0Corel-Layer"/>
  <g id="_1791226142480">
   <rect class="fil0" x="-0" y="0" width="99.07" height="99.06"/>
   <path class="fil1" d="M5.73 3.71l87.6 0c1.12,0 2.02,0.91 2.02,2.02l0 87.6c0,1.12 -0.91,2.02 -2.02,2.02l-87.6 0c-1.12,0 -2.02,-0.9 -2.02,-2.02l0 -87.6c0,-1.12 0.91,-2.02 2.02,-2.02zm17.27 60.36l53.06 0c1.12,0 2.02,0.91 2.02,2.02l0 9.97c0,1.12 -0.91,2.02 -2.02,2.02l-53.06 0c-1.12,0 -2.02,-0.91 -2.02,-2.02l0 -9.97c0,-1.12 0.9,-2.02 2.02,-2.02zm68.31 -56.32l-83.56 0 0 83.56 83.56 0 0 -83.56z"/>
  </g>
 </g>
</svg>
