<?xml version="1.0" encoding="UTF-8"?>
<!DOCTYPE svg PUBLIC "-//W3C//DTD SVG 1.1//EN" "http://www.w3.org/Graphics/SVG/1.1/DTD/svg11.dtd">
<!-- Creator: CorelDRAW 2021 (64-Bit) -->
<svg xmlns="http://www.w3.org/2000/svg" xml:space="preserve" width="16.9333mm" height="16.9333mm" version="1.1" style="shape-rendering:geometricPrecision; text-rendering:geometricPrecision; image-rendering:optimizeQuality; fill-rule:evenodd; clip-rule:evenodd"
viewBox="0 0 87.19 87.19"
 xmlns:xlink="http://www.w3.org/1999/xlink"
 xmlns:xodm="http://www.corel.com/coreldraw/odm/2003">
 <defs>
  <style type="text/css">
   <![CDATA[
    .fil0 {fill:white}
    .fil1 {fill:black;fill-rule:nonzero}
   ]]>
  </style>
 </defs>
 <g id="Layer_x0020_1">
  <metadata id="CorelCorpID_0Corel-Layer"/>
  <g id="_1789996505264">
   <rect class="fil0" x="-0" y="0" width="87.19" height="87.19"/>
   <path class="fil1" d="M5.05 3.27l77.1 0c0.98,0 1.78,0.8 1.78,1.78l0 77.1c0,0.98 -0.8,1.78 -1.78,1.78l-77.1 0c-0.98,0 -1.78,-0.8 -1.78,-1.78l0 -77.1c0,-0.98 0.8,-1.78 1.78,-1.78zm17.68 52.48l12.15 -12.15 -12.15 -12.15c-0.69,-0.69 -0.69,-1.82 0,-2.52l6.2 -6.2c0.69,-0.69 1.82,-0.69 2.52,0l12.15 12.15 12.15 -12.15c0.69,-0.69 1.82,-0.69 2.52,0l6.2 6.2c0.69,0.69 0.69,1.82 0,2.52l-12.15 12.15 12.15 12.15c0.69,0.69 0.69,1.82 0,2.52l-6.2 6.2c-0.69,0.69 -1.82,0.7 -2.52,0l-12.15 -12.15 -12.15 12.15c-0.69,0.69 -1.82,0.69 -2.51,0l-6.2 -6.2c-0.69,-0.69 -0.7,-1.82 -0,-2.52zm57.64 -48.92l-73.54 0 0 73.54 73.54 0 0 -73.54z"/>
  </g>
 </g>
</svg>
